<?xml version="1.0" standalone="no"?>
<!DOCTYPE svg PUBLIC "-//W3C//DTD SVG 20010904//EN"
 "http://www.w3.org/TR/2001/REC-SVG-20010904/DTD/svg10.dtd">
<svg version="1.0" xmlns="http://www.w3.org/2000/svg"
 width="100.000000pt" height="80.000000pt" viewBox="0 0 198.000000 198.000000"
 preserveAspectRatio="xMidYMid meet">

<g transform="translate(0.000000,198.000000) scale(0.100000,-0.100000)"
fill="#000000" stroke="none">
<path d="M613 1327 c-22 -24 -45 -59 -52 -78 -11 -33 -12 -34 -59 -31 -58 4
-95 -21 -123 -82 -47 -104 -2 -218 103 -266 53 -24 95 -25 148 -4 l40 16 -20
25 c-44 56 -38 163 13 216 18 19 39 36 47 39 13 4 13 7 0 23 -23 28 -69 44
-102 35 -23 -7 -28 -6 -28 9 0 19 45 87 73 110 9 7 17 17 17 22 0 19 -19 7
-57 -34z"/>
<path d="M852 1247 c-11 -12 -30 -43 -41 -68 -19 -41 -23 -45 -50 -41 -86 12
-143 -114 -92 -208 20 -39 89 -80 131 -80 38 0 91 23 117 52 46 49 55 115 23
178 -23 45 -45 60 -89 60 -17 0 -31 4 -31 8 0 15 60 102 70 102 5 0 10 5 10
10 0 18 -26 11 -48 -13z"/>
<path d="M1070 785 c-7 -36 -9 -69 -5 -73 4 -4 17 5 29 21 28 35 34 34 28 -4
-6 -41 14 -31 23 12 4 19 2 36 -6 45 -12 14 -16 13 -35 -11 l-22 -28 11 42 c8
29 8 44 0 52 -7 7 -14 -8 -23 -56z"/>
<path d="M365 832 c-5 -4 -11 -27 -13 -52 -2 -24 -7 -47 -13 -51 -18 -11 18
-30 45 -23 35 9 53 31 39 52 -7 12 -7 22 1 34 7 11 7 21 1 27 -15 14 -49 21
-60 13z m45 -26 c0 -2 -7 -9 -15 -16 -12 -10 -15 -10 -15 4 0 9 7 16 15 16 8
0 15 -2 15 -4z m-7 -61 c1 -5 -6 -11 -15 -13 -11 -2 -18 3 -18 13 0 17 30 18
33 0z"/>
<path d="M795 830 c-19 -7 -19 -8 -1 -15 15 -7 17 -15 12 -56 -4 -31 -3 -49 4
-49 5 0 10 6 10 13 0 6 5 29 11 50 7 26 15 37 29 37 27 0 25 16 -2 24 -29 7
-38 7 -63 -4z"/>
<path d="M1270 812 c-51 -52 -33 -124 26 -102 39 15 37 29 -2 23 -35 -6 -36
-5 -29 18 10 31 25 50 48 58 17 6 17 8 3 20 -13 11 -20 8 -46 -17z"/>
<path d="M471 774 c-12 -15 -21 -32 -21 -39 0 -20 28 -37 50 -30 29 9 25 23
-5 17 -14 -2 -25 0 -25 6 0 5 14 12 30 16 31 6 38 24 18 44 -17 17 -24 15 -47
-14z"/>
<path d="M573 793 c-16 -3 -23 -11 -23 -28 0 -13 -3 -30 -6 -39 -3 -9 -1 -16
5 -16 6 0 16 12 22 27 6 16 18 36 26 45 9 10 12 17 7 17 -5 -1 -19 -4 -31 -6z"/>
<path d="M620 775 c0 -11 -3 -30 -6 -42 -4 -14 -2 -23 5 -23 6 0 13 11 17 25
3 13 12 29 20 36 21 17 17 27 -11 25 -18 -1 -25 -7 -25 -21z"/>
<path d="M690 775 c-15 -40 -9 -71 13 -67 18 3 21 -6 9 -26 -5 -7 -16 -10 -25
-6 -9 3 -17 2 -17 -4 0 -13 26 -23 44 -16 18 7 56 117 46 133 -5 8 -14 0 -29
-24 -23 -39 -41 -43 -21 -5 8 16 9 25 1 33 -7 7 -13 2 -21 -18z"/>
<path d="M900 780 c-38 -38 -15 -96 28 -70 15 8 14 9 -5 10 -13 0 -23 5 -23
10 0 6 8 10 19 10 30 0 45 25 26 44 -21 20 -21 20 -45 -4z m37 -16 c-3 -3 -12
-4 -19 -1 -8 3 -5 6 6 6 11 1 17 -2 13 -5z"/>
<path d="M992 777 c-25 -27 -28 -50 -8 -66 11 -9 20 -10 35 -1 27 14 27 20 -1
17 -30 -3 -30 25 0 38 12 5 21 14 19 19 -6 19 -23 16 -45 -7z"/>
<path d="M1366 778 c-34 -48 -10 -92 33 -62 23 17 28 53 9 72 -17 17 -25 15
-42 -10z m20 -46 c-20 -20 -22 -1 -4 31 11 20 12 21 16 3 2 -10 -3 -26 -12
-34z"/>
<path d="M1465 792 c-15 -5 -21 -18 -23 -51 -3 -29 0 -41 7 -36 6 3 11 15 11
26 0 10 9 28 20 39 30 30 27 35 -15 22z"/>
<path d="M1507 751 c-3 -25 -9 -56 -12 -68 -5 -14 -3 -23 3 -23 6 0 14 9 17
21 4 11 18 24 31 29 30 12 52 56 36 72 -6 6 -24 12 -40 13 -28 2 -30 0 -35
-44z m63 10 c0 -11 -29 -35 -35 -29 -10 9 7 38 21 38 8 0 14 -4 14 -9z"/>
</g>
</svg>
