<?xml version="1.0" standalone="no"?>
<!DOCTYPE svg PUBLIC "-//W3C//DTD SVG 20010904//EN"
 "http://www.w3.org/TR/2001/REC-SVG-20010904/DTD/svg10.dtd">
<svg version="1.0" xmlns="http://www.w3.org/2000/svg"
 width="100.000000pt" height="100.000000pt" viewBox="0 0 198.000000 198.000000"
 preserveAspectRatio="xMidYMid meet">
<metadata>
Created by potrace 1.10, written by Peter Selinger 2001-2011
</metadata>
<g transform="translate(0.000000,198.000000) scale(0.100000,-0.100000)"
fill="#ffffff" stroke="none">
<path d="M579 1393 c-13 -16 -12 -17 4 -4 9 7 17 15 17 17 0 8 -8 3 -21 -13z"/>
<path d="M616 1402 c-3 -5 1 -9 9 -9 8 0 12 4 9 9 -3 4 -7 8 -9 8 -2 0 -6 -4
-9 -8z"/>
<path d="M685 1401 c-3 -5 -2 -12 3 -15 5 -3 9 1 9 9 0 17 -3 19 -12 6z"/>
<path d="M619 1338 c-18 -18 -42 -53 -53 -79 -20 -42 -24 -45 -45 -37 -32 11
-81 -6 -114 -40 -78 -82 -58 -227 42 -297 37 -26 51 -30 109 -30 37 0 77 6 90
13 l23 13 -21 30 c-13 17 -24 51 -26 82 -7 67 25 135 73 157 40 18 38 29 -13
58 -37 21 -59 23 -96 7 -30 -12 2 54 50 104 47 50 48 51 28 51 -8 0 -29 -15
-47 -32z m-94 -153 c16 -5 17 -5 5 4 -12 8 -11 10 7 8 12 0 20 -4 17 -8 -2 -4
7 -6 20 -5 13 0 22 4 19 9 -2 4 1 7 6 7 6 0 11 -6 11 -12 0 -10 2 -10 8 0 9
13 46 12 59 -3 5 -4 2 -5 -6 0 -11 6 -13 3 -9 -13 4 -15 2 -19 -9 -15 -7 3
-13 2 -12 -3 1 -5 -8 -31 -21 -59 -21 -45 -36 -170 -19 -159 12 7 30 -23 23
-39 -7 -18 -44 -30 -44 -14 0 7 -4 6 -9 -2 -6 -9 -15 -11 -27 -6 -11 4 -23 9
-29 10 -52 7 -71 21 -66 48 1 5 -3 6 -8 2 -6 -3 -21 11 -35 32 -21 30 -23 40
-13 52 7 9 7 12 1 8 -8 -4 -10 7 -9 36 1 23 3 43 5 45 1 1 3 6 4 11 2 19 47
71 57 66 5 -4 9 -1 9 6 0 11 24 9 65 -6z"/>
<path d="M693 1336 c-1 -12 1 -15 4 -8 3 6 8 10 12 8 4 -3 8 1 8 8 0 22 -23
14 -24 -8z"/>
<path d="M870 1336 c0 -2 7 -7 16 -10 8 -3 12 -2 9 4 -6 10 -25 14 -25 6z"/>
<path d="M846 1238 c-20 -23 -38 -56 -42 -74 -6 -30 -8 -32 -39 -27 -65 10
-115 -46 -115 -131 0 -147 177 -210 273 -97 49 59 48 152 -4 204 -24 24 -36
28 -64 25 -19 -2 -35 -2 -35 -1 0 17 33 73 54 92 26 24 35 51 17 51 -5 0 -25
-19 -45 -42z m-51 -128 c17 -7 24 -7 20 0 -8 13 36 13 70 0 39 -15 68 -107 39
-130 -8 -7 -14 -18 -14 -24 0 -6 5 -4 10 4 11 17 13 10 4 -14 -3 -9 -11 -13
-17 -9 -6 4 -7 1 -2 -7 9 -15 -11 -30 -45 -30 -17 0 -21 -3 -12 -9 10 -6 5
-10 -17 -14 -37 -8 -93 2 -85 14 3 5 -4 9 -16 9 -12 0 -28 13 -40 32 -19 32
-19 33 0 66 11 18 20 36 20 40 0 4 -5 -1 -11 -11 -6 -9 -15 -15 -20 -11 -6 3
-5 12 3 22 10 12 10 14 0 8 -8 -5 -7 5 5 28 17 36 37 47 46 24 3 -10 8 -10 18
1 9 9 9 11 2 7 -7 -4 -13 -2 -13 3 0 14 21 14 55 1z m-115 -110 c0 -5 -2 -10
-4 -10 -3 0 -8 5 -11 10 -3 6 -1 10 4 10 6 0 11 -4 11 -10z"/>
<path d="M874 1087 c-4 -7 -4 -9 1 -5 4 4 14 3 22 -3 8 -7 13 -8 13 -1 0 15
-28 23 -36 9z"/>
<path d="M706 947 c3 -10 9 -15 12 -12 3 3 0 11 -7 18 -10 9 -11 8 -5 -6z"/>
<path d="M730 920 c0 -5 5 -10 11 -10 5 0 7 5 4 10 -3 6 -8 10 -11 10 -2 0 -4
-4 -4 -10z"/>
<path d="M916 1202 c-15 -18 -15 -20 6 -38 23 -19 23 -19 6 2 -17 19 -17 21
-1 37 10 9 15 17 12 17 -3 0 -13 -8 -23 -18z"/>
<path d="M336 953 c-6 -14 -5 -15 5 -6 7 7 10 15 7 18 -3 3 -9 -2 -12 -12z"/>
<path d="M340 916 c0 -2 8 -10 18 -17 15 -13 16 -12 3 4 -13 16 -21 21 -21 13z"/>
<path d="M1143 843 c-17 -13 -17 -14 2 -5 11 5 28 8 38 6 11 -1 16 0 13 4 -12
12 -35 10 -53 -5z"/>
<path d="M1336 848 c3 -4 11 -5 19 -1 21 7 19 12 -4 10 -11 0 -18 -5 -15 -9z"/>
<path d="M1072 799 c-22 -94 -9 -131 23 -69 19 37 39 41 25 5 -11 -30 5 -44
19 -16 14 26 14 68 -1 77 -6 4 -21 -5 -35 -22 l-24 -29 11 28 c12 34 13 77 2
77 -5 0 -14 -23 -20 -51z"/>
<path d="M359 839 c0 -2 -2 -26 -5 -53 -2 -27 -9 -53 -16 -58 -20 -13 11 -30
42 -22 44 10 68 46 38 57 -9 3 -8 10 6 26 13 14 16 25 10 31 -10 10 -73 26
-75 19z m51 -33 c0 -2 -7 -9 -15 -16 -12 -10 -15 -10 -15 4 0 9 7 16 15 16 8
0 15 -2 15 -4z m-9 -61 c0 -5 -9 -11 -21 -13 -15 -3 -18 1 -14 13 7 17 35 17
35 0z"/>
<path d="M798 833 c-22 -6 -24 -23 -2 -23 13 0 15 -8 9 -49 -4 -31 -3 -51 4
-56 6 -3 11 2 11 12 0 10 5 35 11 56 8 31 14 37 37 37 26 1 26 1 8 15 -19 15
-44 17 -78 8z"/>
<path d="M1000 836 c0 -2 7 -7 16 -10 8 -3 12 -2 9 4 -6 10 -25 14 -25 6z"/>
<path d="M1273 818 c-37 -39 -45 -73 -24 -99 17 -21 21 -22 50 -10 42 18 43
44 1 28 -16 -6 -32 -8 -36 -5 -10 11 20 63 44 73 12 5 21 14 19 20 -7 19 -33
16 -54 -7z"/>
<path d="M471 774 c-12 -15 -21 -32 -21 -39 0 -20 28 -37 50 -30 29 9 25 23
-5 17 -15 -2 -25 0 -25 7 0 6 11 11 25 11 30 0 43 24 25 45 -17 21 -25 19 -49
-11z m29 -14 c-8 -5 -17 -7 -19 -4 -3 3 1 9 9 14 8 5 17 7 19 4 3 -3 -1 -9 -9
-14z"/>
<path d="M549 763 c-1 -18 -2 -37 -3 -43 -2 -24 20 -7 27 20 4 17 14 33 22 37
26 9 16 22 -15 20 -26 -2 -30 -6 -31 -34z"/>
<path d="M620 779 c0 -9 -3 -31 -6 -48 -9 -42 9 -39 25 5 7 19 19 38 27 41 25
9 15 22 -16 20 -20 -1 -30 -7 -30 -18z"/>
<path d="M690 776 c-20 -54 -5 -91 26 -65 13 11 14 9 3 -14 -13 -29 -25 -34
-32 -14 -2 6 -8 9 -12 5 -15 -14 5 -39 27 -36 17 2 28 18 46 66 17 44 21 67
14 74 -7 7 -17 -3 -33 -33 -12 -24 -24 -39 -26 -32 -2 7 1 22 7 34 8 15 9 24
1 32 -7 7 -13 2 -21 -17z"/>
<path d="M898 783 c-38 -45 -23 -91 25 -79 15 3 27 11 27 16 0 6 -11 8 -25 4
-14 -3 -25 -2 -25 4 0 5 14 12 30 16 31 6 38 24 18 44 -17 17 -32 15 -50 -5z
m37 -13 c3 -5 -1 -10 -10 -10 -9 0 -13 5 -10 10 3 6 8 10 10 10 2 0 7 -4 10
-10z"/>
<path d="M991 781 c-24 -24 -28 -66 -7 -74 18 -7 56 3 56 15 0 5 -10 8 -22 6
-30 -4 -30 24 0 37 12 5 21 14 19 19 -6 19 -26 17 -46 -3z"/>
<path d="M1367 782 c-21 -23 -22 -71 -2 -79 9 -3 25 3 35 12 24 22 26 70 4 79
-21 8 -19 9 -37 -12z m22 -44 c-7 -13 -14 -18 -16 -11 -3 7 1 22 8 35 7 13 14
18 16 11 3 -7 -1 -22 -8 -35z"/>
<path d="M1441 771 c0 -14 -1 -34 -3 -43 -5 -30 15 -24 25 7 6 17 16 34 23 38
23 13 16 24 -16 24 -26 0 -30 -4 -29 -26z"/>
<path d="M1506 752 c-10 -71 -28 -125 -38 -110 -6 10 -8 8 -8 -4 0 -26 28 -22
33 5 l4 22 8 -22 c9 -27 35 -31 35 -5 0 13 -2 14 -9 3 -7 -11 -10 -10 -15 6
-8 27 2 51 24 58 30 10 53 42 46 68 -4 18 -12 23 -40 23 -33 0 -34 -2 -40 -44z
m64 9 c0 -11 -29 -35 -35 -29 -10 9 7 38 21 38 8 0 14 -4 14 -9z"/>
<path d="M1200 773 c16 -7 12 -34 -7 -50 -16 -13 -16 -13 5 -3 25 12 28 51 4
56 -7 1 -8 0 -2 -3z"/>
<path d="M1216 692 c-3 -5 1 -9 9 -9 8 0 12 4 9 9 -3 4 -7 8 -9 8 -2 0 -6 -4
-9 -8z"/>
<path d="M1109 673 c-6 -34 -5 -53 2 -53 5 0 9 14 9 30 0 27 -8 42 -11 23z"/>
<path d="M1252 650 c0 -19 2 -27 5 -17 2 9 2 25 0 35 -3 9 -5 1 -5 -18z"/>
<path d="M1602 645 c0 -16 2 -22 5 -12 2 9 2 23 0 30 -3 6 -5 -1 -5 -18z"/>
<path d="M810 643 c0 -15 -2 -16 -10 -3 -8 13 -10 12 -10 -2 0 -10 6 -18 14
-18 17 0 29 27 16 35 -6 4 -10 -2 -10 -12z"/>
<path d="M870 643 c0 -13 5 -23 10 -23 13 0 13 11 0 30 -8 12 -10 11 -10 -7z"/>
<path d="M911 650 c-14 -8 -7 -30 9 -30 11 0 21 28 12 34 -5 3 -14 1 -21 -4z"/>
<path d="M957 653 c-4 -3 -7 -13 -7 -22 1 -13 3 -13 11 2 11 19 8 33 -4 20z"/>
<path d="M1032 647 c-13 -15 -6 -27 14 -27 7 0 11 7 10 15 -3 22 -12 27 -24
12z"/>
<path d="M1177 653 c-12 -12 -7 -33 7 -33 8 0 13 7 12 15 -3 19 -11 27 -19 18z"/>
<path d="M1219 658 c-7 -25 -5 -38 8 -38 12 0 13 3 4 13 -6 8 -8 17 -4 20 3 4
3 7 0 7 -4 0 -7 -1 -8 -2z"/>
<path d="M1334 644 c-4 -11 -9 -22 -11 -26 -7 -12 12 -9 31 5 16 12 16 14 2
26 -13 11 -17 10 -22 -5z m21 -4 c3 -5 1 -10 -4 -10 -6 0 -11 5 -11 10 0 6 2
10 4 10 3 0 8 -4 11 -10z"/>
<path d="M1561 647 c-6 -8 -8 -17 -4 -20 11 -12 19 -7 20 13 2 24 -1 25 -16 7z"/>
<path d="M1637 653 c-10 -10 -8 -33 2 -33 6 0 9 9 8 20 -1 23 -1 22 -10 13z"/>
<path d="M643 635 c0 -8 4 -12 9 -9 5 3 6 10 3 15 -9 13 -12 11 -12 -6z"/>
<path d="M737 635 c2 -7 10 -12 18 -12 8 0 16 5 18 12 3 6 -5 11 -18 11 -13 0
-21 -5 -18 -11z"/>
<path d="M987 633 c3 -7 9 -10 14 -7 14 8 11 21 -5 21 -8 0 -12 -6 -9 -14z"/>
<path d="M1130 635 c0 -8 2 -15 4 -15 2 0 6 7 10 15 3 8 1 15 -4 15 -6 0 -10
-7 -10 -15z"/>
<path d="M1271 634 c0 -11 3 -14 6 -6 3 7 2 16 -1 19 -3 4 -6 -2 -5 -13z"/>
<path d="M1381 634 c0 -11 3 -14 6 -6 3 7 2 16 -1 19 -3 4 -6 -2 -5 -13z"/>
<path d="M1411 638 c-1 -10 5 -18 13 -18 20 0 29 17 15 26 -8 4 -9 3 -5 -4 4
-7 3 -12 -3 -12 -5 0 -12 6 -14 13 -3 7 -6 5 -6 -5z"/>
</g>
</svg>
